<svg xmlns="http://www.w3.org/2000/svg" xmlns:xlink="http://www.w3.org/1999/xlink" version="1.1" id="Layer_1" x="0px" y="0px" viewBox="0 0 22.5 22.5" style="enable-background:new 0 0 22.5 22.5;" xml:space="preserve">
<style type="text/css">
	.st0{fill:#ffffff;}
</style>
<path class="st0" d="M3.9,17.8c-0.1-0.1-0.2-0.4-0.1-0.5l1.1-2.4c0.1-0.2,0.2-0.4,0.4-0.5c0.1-0.1,0.2,0,0.2,0.1l-0.1,1.1  c0,0.2,0.1,0.3,0.3,0.3l0.6-0.1c0.2,0,0.3,0.1,0.3,0.2l-0.1,0.6c0,0.2,0.1,0.3,0.3,0.3h1.1c0.2,0,0.3,0.1,0.2,0.1  c-0.1,0.1-0.3,0.2-0.5,0.3l-2.7,0.9c-0.2,0.1-0.5,0-0.6-0.1L3.9,17.8z M16.1,5.3C16,5.2,16,5,16.1,4.8l0.6-0.5  c0.1-0.1,0.4-0.1,0.5,0l1.7,1.6C19,6,19,6.2,18.9,6.4L18.3,7c-0.1,0.1-0.4,0.1-0.5,0L16.1,5.3z M17.2,9.1c0.1-0.1,0.3-0.2,0.3-0.2  s0.1-0.1,0.3-0.2l2.5-2.3c0.1-0.1,0.1-0.3,0-0.5l-3-2.8c-0.1-0.1-0.4-0.1-0.5,0l-2.5,2.3C14.2,5.5,14,5.6,14,5.6s-0.1,0.1-0.3,0.2  L5,14c-0.1,0.1-0.3,0.4-0.4,0.5l-2.2,4.7c-0.1,0.2,0,0.3,0.2,0.2l5.2-1.8c0.2-0.1,0.5-0.2,0.6-0.4L17.2,9.1z"/>
</svg>