<svg xmlns="http://www.w3.org/2000/svg" xmlns:xlink="http://www.w3.org/1999/xlink" version="1.1" id="Layer_2" x="0px" y="0px" viewBox="0 0 20 20" style="enable-background:new 0 0 20 20;" xml:space="preserve">
<style type="text/css">
	.st0{fill:#FFFFFF;}
</style>
<path class="st0" d="M5,8.4c0-2,1.6-3.7,3.7-3.7c1,0,1.9,0.4,2.6,1.1c0.7,0.7,1.1,1.6,1.1,2.6c0,1-0.4,1.9-1.1,2.6  c-0.7,0.7-1.6,1.1-2.6,1.1C6.6,12.1,5,10.4,5,8.4 M16.2,14.5l-3.4-3.4c0.5-0.8,0.8-1.8,0.8-2.8c0-1.3-0.5-2.6-1.5-3.5  C11.3,3.9,10,3.4,8.7,3.4h0c-2.8,0-5,2.2-5,5c0,2.8,2.2,5,5,5c1,0,2-0.3,2.8-0.8l3.4,3.4c0.2,0.2,0.5,0.2,0.7,0l0.7-0.7  C16.4,15,16.4,14.7,16.2,14.5"/>
</svg>