<svg xmlns="http://www.w3.org/2000/svg" xmlns:xlink="http://www.w3.org/1999/xlink" version="1.1" id="Layer_1" x="0px" y="0px" viewBox="0 0 20 20" style="enable-background:new 0 0 20 20;" xml:space="preserve">
<style type="text/css">
	.st0{fill:#ffffff;}
</style>
<path class="st0" d="M9.9,12.3c2.7,0,4.9-2.2,4.9-4.9s-2.2-4.9-4.9-4.9S5,4.7,5,7.4C5.1,10.1,7.3,12.3,9.9,12.3 M9.9,4  c1.9,0,3.6,1.6,3.6,3.6c0,1.9-1.6,3.6-3.6,3.6c-1.9,0-3.6-1.6-3.6-3.6S8,4,9.9,4"/>
<path class="st0" d="M13.8,12.1c-0.3,0.3-0.8,0.6-1.2,0.8c2.1,1,3.6,2.9,3.8,5.2h-13c0.3-2.3,1.7-4.3,3.8-5.2  c-0.4-0.3-0.9-0.5-1.2-0.8c-2.3,1.3-3.8,3.8-3.8,6.7v0.6h15.5v-0.6C17.7,16,16.1,13.4,13.8,12.1"/>
</svg>